<?xml version="1.0" encoding="UTF-8" standalone="no"?>
<!-- Created with Inkscape (http://www.inkscape.org/) -->

<svg
   version="1.1"
   id="svg1"
   width="58.906219"
   height="59.009117"
   viewBox="0 0 58.90622 59.009116"
   xmlns:xlink="http://www.w3.org/1999/xlink"
   xmlns="http://www.w3.org/2000/svg"
   xmlns:svg="http://www.w3.org/2000/svg">
  <defs
     id="defs1" />
  <g
     id="g1"
     transform="translate(-67.707392,-65.095334)">
    <image
       width="193.92"
       height="140.16"
       preserveAspectRatio="none"
       id="image1" />
    <path
       style="fill:#ffffff"
       d="m 93.060466,123.81505 c -4.393782,-0.64454 -9.233019,-2.48403 -12.635924,-4.80316 -5.465,-3.72447 -9.768459,-9.72131 -11.824355,-16.47714 -0.778306,-2.557573 -0.871046,-3.371076 -0.890896,-7.814748 -0.01858,-4.159613 0.09134,-5.376484 0.681169,-7.540958 1.463094,-5.36904 3.984384,-9.728312 7.847932,-13.568956 3.873867,-3.850902 7.80291,-6.098038 13.558718,-7.754632 3.549114,-1.021479 10.88715,-1.01184 14.68289,0.01929 14.59712,3.965369 24.04193,18.196128 21.80688,32.857061 -1.00751,6.608883 -3.78467,12.078683 -8.5163,16.773423 -6.52613,6.47525 -15.8474,9.60992 -24.710114,8.30982 z m 2.938204,-2.69344 c 0.318769,-0.3841 0.302729,-0.62233 -0.08137,-1.20854 -0.432285,-0.65975 -0.416751,-0.86113 0.161135,-2.08898 0.351746,-0.74736 1.555399,-2.19806 2.674786,-3.22377 2.224199,-2.03808 3.001779,-3.23544 3.004809,-4.62698 10e-4,-0.49867 0.10997,-0.85108 0.24197,-0.78313 2.48721,1.2803 2.67218,1.3045 5.51441,0.72133 4.58385,-0.94051 4.42538,-0.9368 5.08737,-0.11927 0.53747,0.66374 0.69648,0.70214 1.46248,0.35313 1.17709,-0.53632 1.03251,-1.78204 -0.22359,-1.92659 -0.48364,-0.0556 -1.59485,-0.58269 -2.46937,-1.1712 -1.50407,-1.01216 -3.90421,-1.76761 -5.61592,-1.76761 -0.42521,0 -1.27342,-0.43928 -1.88492,-0.97618 -0.84728,-0.74392 -1.19586,-1.38108 -1.46511,-2.67802 -0.31743,-1.52906 -0.28466,-1.81818 0.32271,-2.847605 0.53682,-0.909833 0.63251,-1.435868 0.46474,-2.554679 -0.25477,-1.69893 0.67196,-4.14763 2.08039,-5.496988 1.73554,-1.662752 3.09261,-0.09254 2.81484,3.256945 -0.11651,1.404994 -0.30802,1.924535 -0.83949,2.277416 -0.89333,0.593149 -0.88313,1.607755 0.0195,1.941668 1.46394,0.541544 2.5306,-0.294458 1.89383,-1.484286 -0.26816,-0.501051 -0.0932,-0.895188 0.96707,-2.178224 3.92768,-4.753042 4.11927,-8.90709 0.55846,-12.108569 -1.99401,-1.792784 -4.04153,-2.502196 -6.91748,-2.396724 l -2.16994,0.07958 -0.18683,-1.897166 c -0.24931,-2.531721 -0.83919,-3.55688 -3.625492,-6.30082 -1.293658,-1.273991 -2.40658,-2.604346 -2.473162,-2.956346 -0.143147,-0.756786 -1.511078,-1.062766 -1.91343,-0.427998 -0.545647,0.860837 -0.289135,1.578485 0.685666,1.918303 1.152059,0.40161 1.593245,1.121828 1.593245,2.600906 0,1.690168 -0.588275,2.993376 -1.751849,3.880877 -0.584449,0.445781 -1.378222,1.462426 -1.763939,2.259212 -0.385717,0.796785 -0.751523,1.4487 -0.812901,1.4487 -0.06138,0 -1.066497,-0.221456 -2.233597,-0.492125 -3.862472,-0.895767 -7.124418,0.2761 -9.268777,3.329844 -0.889412,1.266597 -0.968195,1.594159 -0.959897,3.991064 0.0077,2.221497 0.148331,2.897774 0.942331,4.531217 0.513311,1.056 1.015686,2.424 1.116389,3.04 0.159839,0.977733 0.299921,1.120001 1.102793,1.120001 0.545346,0 1.064143,-0.236701 1.274572,-0.581521 0.293072,-0.480248 0.20162,-0.705257 -0.525125,-1.292021 -1.084938,-0.875964 -1.097289,-1.398934 -0.08043,-3.405607 1.321913,-2.60867 2.797896,-2.93637 4.616233,-1.024901 0.655397,0.688966 1.419141,1.988023 1.762241,2.997405 0.577597,1.699262 0.580284,1.844561 0.05825,3.149255 -0.684932,1.711815 -0.441171,2.956471 0.766425,3.913411 0.503455,0.398956 1.220541,1.514116 1.597284,2.483976 0.376018,0.968 0.899784,2.09411 1.163925,2.50246 0.429868,0.66456 0.425753,0.82563 -0.03922,1.53527 -0.712228,1.087 -2.238841,1.95926 -4.195414,2.39712 -1.955915,0.43771 -3.340874,0.0934 -3.809289,-0.94702 -0.488963,-1.08606 -1.6,-0.789 -1.6,0.42779 0,0.70351 0.168844,0.98631 0.64,1.07195 0.352,0.064 0.929965,0.38308 1.284367,0.70911 1.534509,1.41166 5.519926,2.08292 7.621898,1.28375 0.433361,-0.16476 0.847324,-0.24017 0.919918,-0.16758 0.07259,0.0726 -0.0063,1.05733 -0.175322,2.18831 -0.25577,1.71144 -0.211812,2.31649 0.262097,3.60758 0.313175,0.85319 0.586876,2.09629 0.608226,2.76243 0.05095,1.58982 1.004355,2.3061 1.797487,1.35044 z"
       id="path1" />
  </g>
</svg>
